<svg xmlns="http://www.w3.org/2000/svg" viewBox="0 0 232 132"><defs><style>.cls-1,.cls-2{fill:#fff;}.cls-2,.cls-3{fill-rule:evenodd;}.cls-3{fill:#006a8c;}.cls-4{fill:#1d1d1b;}.cls-5{fill:#026890;}</style></defs><g id="Capa_3" data-name="Capa 3"><rect class="cls-1" x="57" y="23.53" width="53" height="61.47"/><rect class="cls-1" x="106.6" y="32.75" width="33.65" height="52.25"/><rect class="cls-1" x="140.25" y="33.83" width="2.92" height="26.81"/><circle class="cls-1" cx="156.8" cy="68.06" r="18.37"/><circle class="cls-1" cx="132.57" cy="57.4" r="23.57"/><circle class="cls-1" cx="131.27" cy="51.56" r="21.56"/><rect class="cls-1" x="44.92" y="58.29" width="11.5" height="45.52" transform="translate(-33.5 35.75) rotate(-29.7)"/><polygon class="cls-2" points="56 64.88 45.18 79.12 27.43 76.87 20.5 60.38 31.32 46.13 49.07 48.38 56 64.88"/></g><g id="Capa_1" data-name="Capa 1"><g id="Logo_SchoolCloud" data-name="Logo SchoolCloud"><path class="cls-3" d="M84.87,8.08h1.69a33.88,33.88,0,0,1,20.36,7.33,34.33,34.33,0,0,1,11.46,16.22,3.61,3.61,0,0,0,.62-.24,25.78,25.78,0,0,1,21.22.82,8.9,8.9,0,0,1,1.13.64V53.21h1.82c.05-6.35,0-12.8,0-19.19,0-.06.12,0,.18.07.43.28.87.64,1.29,1a25.61,25.61,0,0,1,7.75,10.29,6.79,6.79,0,0,1,.35.95,4.94,4.94,0,0,1,.05,1.24v18a11.56,11.56,0,0,0-4.7-.42,7.28,7.28,0,0,0-3.65,1.62,8.45,8.45,0,0,0-2.66,7.73,8,8,0,0,0,1.42,3.88,6.88,6.88,0,0,0,5.05,2.88,23.47,23.47,0,0,0,2.57.07h5.27c0-10.57,0-21.24,0-31.84h.05a20.13,20.13,0,0,1,7.91,1.73,18.81,18.81,0,0,1,5.71,3.92A20.62,20.62,0,0,1,172,57.71a19.32,19.32,0,0,1,3.68,10.75v1.26a19.69,19.69,0,0,1-12.36,17.55,20,20,0,0,1-6.1,1.39c-1.21.09-2.45,0-3.7,0H75.08a1.16,1.16,0,0,0,.2.42c.54.92,1.12,1.92,1.64,2.88,1.58-.89,3.15-1.84,4.72-2.77a.85.85,0,0,1,.31-.13c.16,8,.29,16.06.44,24.08,0,.08-.11,0-.13,0-.8-.44-1.62-1-2.42-1.44-5.92-3.61-11.94-7.29-17.9-10.88q2.48-1.48,5-2.93c-6.87-12.09-13.8-24.12-20.65-36.22,1.63-1,3.24-2,4.89-2.91-3.37-2.08-6.76-4.13-10.14-6.2s-6.8-4.08-10.17-6.16c.14,8,.27,16.09.44,24.11,0,.08.11,0,.13,0,1.62-.88,3.24-1.92,4.85-2.83a1,1,0,0,1,.22.31c2.94,5.15,6,10.31,8.87,15.51.92,1.64,1.88,3.27,2.83,4.94.06.1.16.18.16.31-2.67,0-5.22.11-7.56-.11a28.59,28.59,0,0,1-6.31-1.33A28.65,28.65,0,0,1,15,60.94V59.37c0-.65.07-1.37.13-2a26.55,26.55,0,0,1,1-5.25A28.22,28.22,0,0,1,26.38,37.32a28.93,28.93,0,0,1,5.23-3.12,28.32,28.32,0,0,1,14-2.48,27.35,27.35,0,0,1,6.93,1.42s0,0,0,0a34.4,34.4,0,0,1,32.26-25Zm4.37,22.8V53.21h1.84V49.07A30.34,30.34,0,0,1,91.17,45c.33-2.36,1.62-4,4-4.32,2.92-.37,4,1.53,4,4.19s0,5.6,0,8.33a14.43,14.43,0,0,0,1.86,0V46.5a21.14,21.14,0,0,0-.15-3.19,5.24,5.24,0,0,0-1-2.42,5.59,5.59,0,0,0-8.88,1V30.81H89.26S89.24,30.85,89.24,30.88Zm-23.91.88a7.2,7.2,0,0,0-4.56,1.58,5.18,5.18,0,0,0-1.84,4.32c.12,4.06,3.17,5,6.34,6,1.58.51,3.12,1,3.92,2.21a3.76,3.76,0,0,1,.4,2.55,3.72,3.72,0,0,1-1.09,2,5.45,5.45,0,0,1-4.72,1.22,4.94,4.94,0,0,1-3.63-2.53c-.61.42-1.22.82-1.84,1.22a6.81,6.81,0,0,0,2.92,2.48,9.3,9.3,0,0,0,4.61.75A6.76,6.76,0,0,0,69.7,52a5.46,5.46,0,0,0,1.77-3.63,5,5,0,0,0-1.22-4.14,7.64,7.64,0,0,0-3.43-2,20.17,20.17,0,0,1-4-1.39,3.5,3.5,0,0,1-2-3.37c0-2.31,1.67-3.46,3.61-3.79a5,5,0,0,1,5.27,2c.55-.4,1.12-.79,1.66-1.19A6.62,6.62,0,0,0,65.33,31.76Zm21.12,9.91c.09-.07.33-.24.33-.29s-.14-.17-.22-.24a6.72,6.72,0,0,0-5.23-2,6.82,6.82,0,0,0-5.74,3.19,7.39,7.39,0,0,0-1.11,3.37,7.79,7.79,0,0,0,.64,3.79,6.84,6.84,0,0,0,5,3.92,6.51,6.51,0,0,0,6.55-2.12c-.45-.37-.89-.75-1.35-1.11a4.78,4.78,0,0,1-2.43,1.73,5.54,5.54,0,0,1-3.55-.31,5.48,5.48,0,0,1-3.08-5.26,5.32,5.32,0,0,1,6.6-5.58,6.45,6.45,0,0,1,2.51,1.66C85.72,42.17,86.08,41.94,86.45,41.67Zm20.21-.31a7.16,7.16,0,0,0-1.89,5.36,7.74,7.74,0,0,0,.71,2.92,7.08,7.08,0,0,0,7,3.93,7.31,7.31,0,0,0,5.09-2.2A7,7,0,0,0,119.53,46a6.91,6.91,0,0,0-2.26-5,7.61,7.61,0,0,0-5.47-1.84A7.18,7.18,0,0,0,106.66,41.36Zm21.24-2a6.81,6.81,0,0,0-3.5,2,7.13,7.13,0,0,0-1.9,5.38,7,7,0,0,0,2.28,5,7.68,7.68,0,0,0,5.47,1.82,7.07,7.07,0,0,0,7-7.56A7,7,0,0,0,135,41a7.55,7.55,0,0,0-5.46-1.84A8.64,8.64,0,0,0,127.9,39.39ZM91.1,58.55a18.44,18.44,0,0,0-4.21-1.42,14.57,14.57,0,0,0-3.59-.2c-.3,0-.58.08-.86.12a12.46,12.46,0,0,0-8.56,5,11.52,11.52,0,0,0-2.26,5.48,13,13,0,0,0,.82,6.66A12.19,12.19,0,0,0,84.3,81.68a15.65,15.65,0,0,0,8.44-2.21c.15-.1.52-.31.55-.42a3.05,3.05,0,0,0,0-.8V75.79A18.07,18.07,0,0,1,88.11,78a13.86,13.86,0,0,1-6.56,0,8.79,8.79,0,0,1-4.45-3,8.42,8.42,0,0,1-1.91-5.5A8.69,8.69,0,0,1,78.85,62a9.35,9.35,0,0,1,5.6-1.79,15.32,15.32,0,0,1,8.22,2.41c.08,0,.21.2.27.11V59.53A15.32,15.32,0,0,0,91.1,58.55Zm6.27-1.22v24h3.32v-24h-3.3S97.37,57.3,97.37,57.33Zm12.94,8a7.7,7.7,0,0,0-3.83,2.4A8.27,8.27,0,0,0,104.4,74a7.94,7.94,0,0,0,2.65,5.65,8.31,8.31,0,0,0,6.23,2A7.94,7.94,0,0,0,118.93,79a7.83,7.83,0,0,0,2.06-6.2,8.11,8.11,0,0,0-8.86-7.76A10,10,0,0,0,110.31,65.35Zm14.4.11v7.12c0,2.4-.12,4.8.71,6.42a5,5,0,0,0,4.43,2.68,5.62,5.62,0,0,0,2.84-.73,6.85,6.85,0,0,0,1.77-1.33c0-.05.22-.23.23-.15v1.84H138V65.42c-1.06,0-2.22,0-3.32,0,0,3.5,0,7.18,0,10.74a4.55,4.55,0,0,1,0,.74,1.67,1.67,0,0,1-.23.33,4.58,4.58,0,0,1-2.28,1.73,3.23,3.23,0,0,1-3.46-.82c-.87-1.3-.68-3.81-.68-6V65.4h-3.28A.06.06,0,0,0,124.71,65.46Z"/><path class="cls-3" d="M111.75,40.65A5.5,5.5,0,0,1,116,42.07a5.61,5.61,0,0,1,1.73,3.9,6,6,0,0,1-1.33,4.29,5.25,5.25,0,0,1-3.79,1.82,5.57,5.57,0,0,1-4.21-1.42,5.43,5.43,0,0,1-1.75-3.87,5.48,5.48,0,0,1,2.9-5.54,5.09,5.09,0,0,1,1-.4A6.42,6.42,0,0,1,111.75,40.65Z"/><path class="cls-3" d="M129.48,40.65A5.68,5.68,0,0,1,133.71,42,5.78,5.78,0,0,1,135.42,46a5.85,5.85,0,0,1-1.31,4.27,5.21,5.21,0,0,1-3.79,1.84,5.7,5.7,0,0,1-4.23-1.39,5.55,5.55,0,0,1-1.73-3.9,5.52,5.52,0,0,1,2.86-5.54A5.92,5.92,0,0,1,129.48,40.65Z"/><path class="cls-3" d="M152.81,68.37V78.72c-1.85-.08-3.58.16-4.94-.21a3.82,3.82,0,0,1-2.31-2.21,8.05,8.05,0,0,1-.46-3.94c.29-2.52,1.78-4.55,4.36-4.72A6.06,6.06,0,0,1,152.81,68.37Z"/><path class="cls-3" d="M112.3,68a4.91,4.91,0,0,1,3.79,1.38,5.28,5.28,0,0,1,1.6,3.56,5.73,5.73,0,0,1-1.15,4,4.67,4.67,0,0,1-3.42,1.75,5,5,0,0,1-3.85-1.31,5.1,5.1,0,0,1-1.55-3.61,6,6,0,0,1,1.15-4,4.53,4.53,0,0,1,2.28-1.6A5.62,5.62,0,0,1,112.3,68Z"/></g></g><g id="Capa_2" data-name="Capa 2"><path class="cls-4" d="M86.74,92.5h1.11l2.26,10.55H88.7l-.39-2h-2.1l-.4,2H84.44Zm1.36,7.4-.28-1.52-.53-3.84h0l-.84,5.36Z"/><path class="cls-4" d="M91.13,92.5H92.7c.3,0,.54,0,.72,0a4.89,4.89,0,0,1,.7.12,1.79,1.79,0,0,1,.68.32,3.87,3.87,0,0,1,.56.61,2.91,2.91,0,0,1,.46,1A8.69,8.69,0,0,1,96.11,96a14.67,14.67,0,0,1,.12,2,14,14,0,0,1-.1,1.81,8.36,8.36,0,0,1-.27,1.33,2.53,2.53,0,0,1-.47.91,2.85,2.85,0,0,1-.6.57,2.14,2.14,0,0,1-.79.31,6.61,6.61,0,0,1-.88.14l-1,0h-1ZM94.75,98v-1c0-.17,0-.43,0-.76a4.27,4.27,0,0,0-.11-.79c-.06-.2-.14-.42-.24-.67a1.55,1.55,0,0,0-.39-.58,2.13,2.13,0,0,0-.6-.33,2,2,0,0,0-.83-.1v8.17a2.31,2.31,0,0,0,.82-.1,2.16,2.16,0,0,0,.59-.28,1.12,1.12,0,0,0,.39-.5,5.13,5.13,0,0,0,.25-.59,3.92,3.92,0,0,0,.12-.72c0-.32,0-.56,0-.73s0-.43,0-.77Z"/><path class="cls-4" d="M98.11,92.5h1.2l1.5,7.61h0l0-.43.42-2.53.91-4.65h1.23l1,10.55h-1.37l-.25-3.93-.09-2,0-1.39h0l-.24,1.52-1.09,5.76h-1L99,95.77h0l-.41,7.28H97.24Z"/><path class="cls-4" d="M107.11,92.5v10.55h-1.4V92.5Z"/><path class="cls-4" d="M110,95l.08.68.21,3.55v3.87h-1.4V92.5h1.35l2.46,8,0,0-.34-4.23V92.5h1.4v10.55h-1.3l-2.46-8.13Z"/><path class="cls-4" d="M117,92.5v10.55h-1.4V92.5Z"/><path class="cls-4" d="M122.09,92.71l0,1.41a2,2,0,0,0-1.19-.45,1.15,1.15,0,0,0-.9.4,1.43,1.43,0,0,0-.34,1,1.84,1.84,0,0,0,.39,1.15l1.06,1.16a7.09,7.09,0,0,1,1.16,1.46,3.44,3.44,0,0,1,.34,1.64,3,3,0,0,1-.67,2,2.25,2.25,0,0,1-1.81.79,2.37,2.37,0,0,1-1.54-.5v-1.41a2.43,2.43,0,0,0,1.39.54,1.06,1.06,0,0,0,.92-.42,1.7,1.7,0,0,0,.31-1.05,2.1,2.1,0,0,0-.3-1.08,4.28,4.28,0,0,0-.74-.91c-.3-.27-.59-.55-.88-.84a3.76,3.76,0,0,1-.73-1.06,3.23,3.23,0,0,1-.3-1.4,3,3,0,0,1,.61-1.94,2.12,2.12,0,0,1,1.75-.76A2.83,2.83,0,0,1,122.09,92.71Z"/><path class="cls-4" d="M123,92.5h4.63v1.22H126v9.33h-1.4V93.72H123Z"/><path class="cls-4" d="M128.5,103.05V92.5h1.68a6.54,6.54,0,0,1,.67,0,2.57,2.57,0,0,1,.68.17,1.51,1.51,0,0,1,.65.41,2.51,2.51,0,0,1,.43.81,4,4,0,0,1,.19,1.29,5.8,5.8,0,0,1-.11,1.11,2.9,2.9,0,0,1-.46,1,1.38,1.38,0,0,1-.89.59l1.95,5.13h-1.46l-1.9-5.16h0v5.16Zm1.4-5.88c.94.07,1.41-.49,1.41-1.66a3.13,3.13,0,0,0-.23-1.37.93.93,0,0,0-1-.45h-.22Z"/><path class="cls-4" d="M135.92,92.5H137l2.26,10.55h-1.41l-.39-2h-2.1l-.39,2h-1.38Zm1.36,7.4L137,98.38l-.53-3.84h0l-.84,5.36Z"/><path class="cls-4" d="M144.4,92.67v1.27a2,2,0,0,0-.89-.27,1.59,1.59,0,0,0-.82.21,1.38,1.38,0,0,0-.57.6,4.66,4.66,0,0,0-.33.78,3.65,3.65,0,0,0-.18.93q0,.57-.06.87c0,.21,0,.47,0,.79,0,2.68.68,4,2,4a1.8,1.8,0,0,0,.84-.21v1.23a2,2,0,0,1-1.12.29q-3.22,0-3.23-5.25c0-3.72,1-5.58,3.14-5.58A2.32,2.32,0,0,1,144.4,92.67Z"/><path class="cls-4" d="M147,92.5v10.55h-1.4V92.5Z"/><path class="cls-4" d="M150.25,92.57a2.37,2.37,0,0,1,1-.21,2.34,2.34,0,0,1,1,.21,2.23,2.23,0,0,1,.73.52,2.37,2.37,0,0,1,.48.82,5.5,5.5,0,0,1,.3.93,7.35,7.35,0,0,1,.16,1c0,.42.06.74.06,1s0,.53,0,.91,0,.67,0,.91,0,.56-.06,1a7.35,7.35,0,0,1-.16,1,5.5,5.5,0,0,1-.3.93,2.57,2.57,0,0,1-.48.82,2.37,2.37,0,0,1-.73.51,2.34,2.34,0,0,1-1,.21,2.37,2.37,0,0,1-1-.21,2.32,2.32,0,0,1-.72-.51,2.78,2.78,0,0,1-.49-.82,8.21,8.21,0,0,1-.3-.93,9.39,9.39,0,0,1-.15-1c0-.42-.06-.75-.06-1s0-.54,0-.91,0-.68,0-.91,0-.56.06-1a9.39,9.39,0,0,1,.15-1,8.21,8.21,0,0,1,.3-.93,2.54,2.54,0,0,1,.49-.82A2.19,2.19,0,0,1,150.25,92.57Zm2,2.16c-.17-.7-.5-1.06-1-1.06s-.84.36-1,1.06a18.67,18.67,0,0,0,0,6.09c.17.71.51,1.06,1,1.06s.84-.35,1-1.06a18.67,18.67,0,0,0,0-6.09Zm.39-4.58L151.28,92l-.7-.41,1.14-2.09Z"/><path class="cls-4" d="M156.65,95l.09.68.21,3.55v3.87h-1.4V92.5h1.34l2.47,8,0,0-.33-4.23V92.5h1.4v10.55h-1.3l-2.47-8.13Z"/><path class="cls-4" d="M165.22,92.5H169v1.22h-2.37V97h2.11v1.22h-2.11v3.59H169v1.21h-3.77Z"/><path class="cls-4" d="M173.44,92.71l0,1.41a2,2,0,0,0-1.19-.45,1.15,1.15,0,0,0-.9.4,1.43,1.43,0,0,0-.34,1,1.84,1.84,0,0,0,.39,1.15l1.06,1.16a6.76,6.76,0,0,1,1.16,1.46,3.44,3.44,0,0,1,.34,1.64,3,3,0,0,1-.67,2,2.25,2.25,0,0,1-1.81.79,2.37,2.37,0,0,1-1.54-.5v-1.41a2.43,2.43,0,0,0,1.39.54,1.06,1.06,0,0,0,.92-.42,1.7,1.7,0,0,0,.31-1.05,2.1,2.1,0,0,0-.3-1.08,4.28,4.28,0,0,0-.74-.91c-.29-.27-.59-.55-.88-.84a3.76,3.76,0,0,1-.73-1.06,3.23,3.23,0,0,1-.3-1.4,3,3,0,0,1,.61-1.94,2.13,2.13,0,0,1,1.75-.76A2.81,2.81,0,0,1,173.44,92.71Z"/><path class="cls-4" d="M179.32,92.67v1.27a2.08,2.08,0,0,0-.9-.27,1.59,1.59,0,0,0-.82.21,1.42,1.42,0,0,0-.56.6,4.74,4.74,0,0,0-.34.78,4.19,4.19,0,0,0-.17.93c0,.38-.06.67-.07.87s0,.47,0,.79c0,2.68.67,4,2,4a1.8,1.8,0,0,0,.84-.21v1.23a2,2,0,0,1-1.12.29q-3.24,0-3.24-5.25,0-5.58,3.14-5.58A2.36,2.36,0,0,1,179.32,92.67Z"/><path class="cls-4" d="M182,92.57a2.53,2.53,0,0,1,2,0,2.23,2.23,0,0,1,.73.52,2.54,2.54,0,0,1,.48.82,5.5,5.5,0,0,1,.3.93,7.35,7.35,0,0,1,.16,1c0,.42,0,.74.06,1s0,.53,0,.91,0,.67,0,.91,0,.56-.06,1a7.35,7.35,0,0,1-.16,1,5.5,5.5,0,0,1-.3.93,2.77,2.77,0,0,1-.48.82A2.49,2.49,0,0,1,182,103a2.32,2.32,0,0,1-.72-.51,2.78,2.78,0,0,1-.49-.82,8.21,8.21,0,0,1-.3-.93,7.52,7.52,0,0,1-.15-1c0-.42-.06-.75-.07-1V96.87c0-.24,0-.56.07-1a7.52,7.52,0,0,1,.15-1,8.21,8.21,0,0,1,.3-.93,2.54,2.54,0,0,1,.49-.82A2.19,2.19,0,0,1,182,92.57Zm2,2.16c-.17-.7-.5-1.06-1-1.06s-.84.36-1,1.06a18.67,18.67,0,0,0,0,6.09c.17.71.51,1.06,1,1.06s.84-.35,1-1.06a18.67,18.67,0,0,0,0-6.09Z"/><path class="cls-4" d="M187.26,92.5h1.4v9.34H191v1.21h-3.75Z"/><path class="cls-4" d="M193.49,92.5h1.1l2.27,10.55h-1.41l-.4-2H193l-.39,2h-1.37Zm1.35,7.4-.28-1.52L194,94.54h0l-.84,5.36Z"/><path class="cls-4" d="M197.88,103.05V92.5h1.68a6.44,6.44,0,0,1,.67,0,2.48,2.48,0,0,1,.68.17,1.51,1.51,0,0,1,.65.41,2.51,2.51,0,0,1,.43.81,3.77,3.77,0,0,1,.19,1.29,5.8,5.8,0,0,1-.11,1.11,2.9,2.9,0,0,1-.46,1,1.38,1.38,0,0,1-.89.59l1.95,5.13h-1.46l-1.9-5.16h0v5.16Zm1.4-5.88c.94.07,1.42-.49,1.42-1.66a3.12,3.12,0,0,0-.24-1.37.93.93,0,0,0-1-.45h-.22Z"/><path class="cls-4" d="M206.77,92.5h1.57c.3,0,.54,0,.72,0a5,5,0,0,1,.69.12,1.72,1.72,0,0,1,.68.32,3.11,3.11,0,0,1,.56.61,2.92,2.92,0,0,1,.47,1,9.88,9.88,0,0,1,.29,1.43,14.67,14.67,0,0,1,.12,2,13.84,13.84,0,0,1-.11,1.81,9.8,9.8,0,0,1-.26,1.33,2.7,2.7,0,0,1-.47.91,3.11,3.11,0,0,1-.6.57,2.14,2.14,0,0,1-.79.31,6.61,6.61,0,0,1-.88.14l-1,0h-1ZM210.38,98v-1c0-.17,0-.43,0-.76a5.14,5.14,0,0,0-.12-.79,5.37,5.37,0,0,0-.23-.67,1.45,1.45,0,0,0-.4-.58,1.94,1.94,0,0,0-.59-.33,2,2,0,0,0-.83-.1v8.17a2.31,2.31,0,0,0,1.41-.38,1.28,1.28,0,0,0,.39-.5,5.13,5.13,0,0,0,.25-.59,3.32,3.32,0,0,0,.11-.72c0-.32,0-.56,0-.73V98Z"/><path class="cls-4" d="M213.39,92.5h3.77v1.22h-2.37V97h2.12v1.22h-2.12v3.59h2.37v1.21h-3.77Z"/><path class="cls-5" d="M85.67,108.22h2.1v11.61a3.46,3.46,0,0,0,.38,2,1.27,1.27,0,0,0,1.09.51c.66,0,1.08-.18,1.28-.54a3.7,3.7,0,0,0,.31-1.69V108.22h2.1v11.24c0,.42,0,.73,0,.94s0,.51-.07.91a3.49,3.49,0,0,1-.19.93,4.8,4.8,0,0,1-.4.77,2,2,0,0,1-.65.69,4.41,4.41,0,0,1-1,.4,5.05,5.05,0,0,1-1.35.16,4.58,4.58,0,0,1-1.66-.27,2.75,2.75,0,0,1-1.07-.69,2.92,2.92,0,0,1-.59-1.14,7,7,0,0,1-.26-1.37c0-.44,0-1,0-1.65Zm5.84-3.53-2.08,2.84-1.05-.61,1.72-3.13Z"/><path class="cls-5" d="M95.48,108.22h2.09v14h3.53v1.82H95.48Z"/><path class="cls-5" d="M99.84,108.22h7v1.83h-2.37v14h-2.1v-14H99.84Z"/><path class="cls-5" d="M110.09,108.22v15.83H108V108.22Z"/><path class="cls-5" d="M113.18,108.22H115l2.25,11.42h0l.07-.65.63-3.8,1.36-7h1.85l1.47,15.83h-2.06l-.38-5.9-.12-2.94,0-2.08h0l-.35,2.27L118,124.05h-1.45l-2-10.92h0l-.61,10.92h-2Z"/><path class="cls-5" d="M126.68,108.22h1.66l3.4,15.83h-2.12L129,121h-3.15l-.58,3.08h-2.06Zm2,11.11L128.3,117l-.8-5.75h0l-1.26,8Z"/><path class="cls-5" d="M141.15,115.7H145V116c0,.15,0,.47,0,1s0,.85,0,1.09,0,.59,0,1.08-.05.85-.09,1.12-.11.61-.2,1a4,4,0,0,1-.33,1c-.12.24-.28.51-.47.81a2.22,2.22,0,0,1-.66.67,4.94,4.94,0,0,1-.89.4,3.72,3.72,0,0,1-1.13.16,4.42,4.42,0,0,1-1.61-.27,2.69,2.69,0,0,1-1.15-.84,5.36,5.36,0,0,1-.74-1.24,6.13,6.13,0,0,1-.44-1.66,18.79,18.79,0,0,1-.2-1.91c0-.61-.06-1.34-.06-2.16s0-1.56.05-2.16.08-1.24.17-1.92a7.85,7.85,0,0,1,.42-1.69,6,6,0,0,1,.72-1.26,2.66,2.66,0,0,1,1.1-.86A4,4,0,0,1,141,108a3.75,3.75,0,0,1,2.55.8,4.71,4.71,0,0,1,1.32,2.43l-2,.82a7.17,7.17,0,0,0-.2-.78,2.49,2.49,0,0,0-.28-.63,1.2,1.2,0,0,0-.52-.5,1.81,1.81,0,0,0-.8-.17,1.47,1.47,0,0,0-.74.18,1.3,1.3,0,0,0-.51.59,5.6,5.6,0,0,0-.33.87,7.55,7.55,0,0,0-.18,1.25c0,.53-.06,1-.07,1.49s0,1.07,0,1.8a29.16,29.16,0,0,0,.15,3.26,5.68,5.68,0,0,0,.44,1.88,2,2,0,0,0,.58.79,1.16,1.16,0,0,0,.68.2,2.55,2.55,0,0,0,.52,0,1.33,1.33,0,0,0,.49-.25,1.35,1.35,0,0,0,.42-.6,7.15,7.15,0,0,0,.26-1.16,12.39,12.39,0,0,0,.11-1.86v-.86h-1.76Z"/><path class="cls-5" d="M147.09,108.22h5.65v1.83h-3.55v5h3.17v1.83h-3.17v5.38h3.55v1.82h-5.65Z"/><path class="cls-5" d="M156,111.89l.13,1,.31,5.32v5.81h-2.1V108.22h2l3.69,12,0,0-.5-6.34v-5.65h2.1v15.83h-1.95l-3.7-12.2Z"/><path class="cls-5" d="M164.29,108.22h5.65v1.83h-3.55v5h3.17v1.83h-3.17v5.38h3.55v1.82h-5.65Z"/><path class="cls-5" d="M171.58,124.05V108.22h2.52c.41,0,.74,0,1,0a4.62,4.62,0,0,1,1,.25,2.43,2.43,0,0,1,1,.62,3.65,3.65,0,0,1,.64,1.21,5.87,5.87,0,0,1,.29,1.94,8.12,8.12,0,0,1-.17,1.66,4.17,4.17,0,0,1-.68,1.53,2,2,0,0,1-1.34.89l2.92,7.7h-2.18l-2.86-7.75h0v7.75Zm2.1-8.82c1.41.1,2.12-.73,2.12-2.49a4.64,4.64,0,0,0-.35-2A1.41,1.41,0,0,0,174,110h-.34Z"/><path class="cls-5" d="M182.56,108.22h1.66l3.4,15.83H185.5l-.59-3.08h-3.15l-.58,3.08h-2.06Zm2,11.11-.42-2.29-.8-5.75h0l-1.26,8Z"/><path class="cls-5" d="M195.14,108.47v1.91a3.24,3.24,0,0,0-1.34-.4,2.44,2.44,0,0,0-1.23.31,2.12,2.12,0,0,0-.85.9,8.31,8.31,0,0,0-.51,1.17,6.62,6.62,0,0,0-.26,1.4c0,.56-.08,1-.09,1.31s0,.7,0,1.17q0,6,3,6.05a2.74,2.74,0,0,0,1.26-.32v1.85a3,3,0,0,1-1.68.44q-4.85,0-4.85-7.87,0-8.39,4.7-8.38A3.55,3.55,0,0,1,195.14,108.47Z"/><path class="cls-5" d="M198.86,108.22v15.83h-2.1V108.22Z"/><path class="cls-5" d="M203.62,108.33a3.56,3.56,0,0,1,1.52-.32,3.52,3.52,0,0,1,1.51.32,3.33,3.33,0,0,1,1.09.77,4,4,0,0,1,.72,1.23,9.45,9.45,0,0,1,.46,1.4,13.84,13.84,0,0,1,.23,1.57c0,.63.09,1.12.09,1.47s0,.81,0,1.37,0,1,0,1.36,0,.84-.09,1.47a14.06,14.06,0,0,1-.23,1.58,9.36,9.36,0,0,1-.46,1.39,3.88,3.88,0,0,1-.72,1.23,3.35,3.35,0,0,1-1.09.78,3.52,3.52,0,0,1-1.51.31,3.56,3.56,0,0,1-1.52-.31,3.46,3.46,0,0,1-1.09-.78,3.88,3.88,0,0,1-.72-1.23,9.23,9.23,0,0,1-.45-1.39,10.58,10.58,0,0,1-.23-1.58c-.06-.63-.09-1.12-.1-1.47s0-.8,0-1.36,0-1,0-1.37,0-.84.1-1.47a10.42,10.42,0,0,1,.23-1.57,9.32,9.32,0,0,1,.45-1.4,4,4,0,0,1,.72-1.23A3.44,3.44,0,0,1,203.62,108.33Zm3,3.24c-.25-1.06-.76-1.59-1.51-1.59s-1.26.53-1.52,1.59a21.2,21.2,0,0,0-.37,4.57,21.1,21.1,0,0,0,.37,4.56c.26,1.06.76,1.59,1.52,1.59s1.26-.53,1.51-1.59a27.61,27.61,0,0,0,0-9.13Zm.59-6.88-2.08,2.84-1-.61,1.72-3.13Z"/><path class="cls-5" d="M213.08,111.89l.12,1,.32,5.32v5.81h-2.1V108.22h2l3.7,12,0,0-.5-6.34v-5.65h2.1v15.83h-2l-3.69-12.2Z"/></g></svg>