<svg xmlns="http://www.w3.org/2000/svg" viewBox="0 0 192 119"><defs><style>.cls-1{fill:#006a8c;fill-rule:evenodd;}</style></defs><g id="Capa_1" data-name="Capa 1"><g id="Logo_SchoolCloud" data-name="Logo SchoolCloud"><path class="cls-1" d="M84.87,8.08h1.69a33.88,33.88,0,0,1,20.36,7.33,34.33,34.33,0,0,1,11.46,16.22,3.61,3.61,0,0,0,.62-.24,25.78,25.78,0,0,1,21.22.82,8.9,8.9,0,0,1,1.13.64V53.21h1.82c.05-6.35,0-12.8,0-19.19,0-.06.12,0,.18.07.43.28.87.64,1.29,1a25.61,25.61,0,0,1,7.75,10.29,6.79,6.79,0,0,1,.35.95,4.94,4.94,0,0,1,.05,1.24v18a11.56,11.56,0,0,0-4.7-.42,7.28,7.28,0,0,0-3.65,1.62,8.45,8.45,0,0,0-2.66,7.73,8,8,0,0,0,1.42,3.88,6.88,6.88,0,0,0,5.05,2.88,23.47,23.47,0,0,0,2.57.07h5.27c0-10.57,0-21.24,0-31.84h.05a20.13,20.13,0,0,1,7.91,1.73,18.81,18.81,0,0,1,5.71,3.92A20.62,20.62,0,0,1,172,57.71a19.32,19.32,0,0,1,3.68,10.75v1.26a19.69,19.69,0,0,1-12.36,17.55,20,20,0,0,1-6.1,1.39c-1.21.09-2.45,0-3.7,0H75.08a1.16,1.16,0,0,0,.2.42c.54.92,1.12,1.92,1.64,2.88,1.58-.89,3.15-1.84,4.72-2.77a.85.85,0,0,1,.31-.13c.16,8,.29,16.06.44,24.08,0,.08-.11,0-.13,0-.8-.44-1.62-1-2.42-1.44-5.92-3.61-11.94-7.29-17.9-10.88q2.48-1.48,5-2.93c-6.87-12.09-13.8-24.12-20.65-36.22,1.63-1,3.24-2,4.89-2.91-3.37-2.08-6.76-4.13-10.14-6.2s-6.8-4.08-10.17-6.16c.14,8,.27,16.09.44,24.11,0,.08.11,0,.13,0,1.62-.88,3.24-1.92,4.85-2.83a1,1,0,0,1,.22.31c2.94,5.15,6,10.31,8.87,15.51.92,1.64,1.88,3.27,2.83,4.94.06.1.16.18.16.31-2.67,0-5.22.11-7.56-.11a28.59,28.59,0,0,1-6.31-1.33A28.65,28.65,0,0,1,15,60.94V59.37c0-.65.07-1.37.13-2a26.55,26.55,0,0,1,1-5.25A28.22,28.22,0,0,1,26.38,37.32a28.93,28.93,0,0,1,5.23-3.12,28.32,28.32,0,0,1,14-2.48,27.35,27.35,0,0,1,6.93,1.42s0,0,0,0a34.4,34.4,0,0,1,32.26-25Zm4.37,22.8V53.21h1.84V49.07A30.34,30.34,0,0,1,91.17,45c.33-2.36,1.62-4,4-4.32,2.92-.37,4,1.53,4,4.19s0,5.6,0,8.33a14.43,14.43,0,0,0,1.86,0V46.5a21.14,21.14,0,0,0-.15-3.19,5.24,5.24,0,0,0-1-2.42,5.59,5.59,0,0,0-8.88,1V30.81H89.26S89.24,30.85,89.24,30.88Zm-23.91.88a7.2,7.2,0,0,0-4.56,1.58,5.18,5.18,0,0,0-1.84,4.32c.12,4.06,3.17,5,6.34,6,1.58.51,3.12,1,3.92,2.21a3.76,3.76,0,0,1,.4,2.55,3.72,3.72,0,0,1-1.09,2,5.45,5.45,0,0,1-4.72,1.22,4.94,4.94,0,0,1-3.63-2.53c-.61.42-1.22.82-1.84,1.22a6.81,6.81,0,0,0,2.92,2.48,9.3,9.3,0,0,0,4.61.75A6.76,6.76,0,0,0,69.7,52a5.46,5.46,0,0,0,1.77-3.63,5,5,0,0,0-1.22-4.14,7.64,7.64,0,0,0-3.43-2,20.17,20.17,0,0,1-4-1.39,3.5,3.5,0,0,1-2-3.37c0-2.31,1.67-3.46,3.61-3.79a5,5,0,0,1,5.27,2c.55-.4,1.12-.79,1.66-1.19A6.62,6.62,0,0,0,65.33,31.76Zm21.12,9.91c.09-.07.33-.24.33-.29s-.14-.17-.22-.24a6.72,6.72,0,0,0-5.23-2,6.82,6.82,0,0,0-5.74,3.19,7.39,7.39,0,0,0-1.11,3.37,7.79,7.79,0,0,0,.64,3.79,6.84,6.84,0,0,0,5,3.92,6.51,6.51,0,0,0,6.55-2.12c-.45-.37-.89-.75-1.35-1.11a4.78,4.78,0,0,1-2.43,1.73,5.54,5.54,0,0,1-3.55-.31,5.48,5.48,0,0,1-3.08-5.26,5.32,5.32,0,0,1,6.6-5.58,6.45,6.45,0,0,1,2.51,1.66C85.72,42.17,86.08,41.94,86.45,41.67Zm20.21-.31a7.16,7.16,0,0,0-1.89,5.36,7.74,7.74,0,0,0,.71,2.92,7.08,7.08,0,0,0,7,3.93,7.31,7.31,0,0,0,5.09-2.2A7,7,0,0,0,119.53,46a6.91,6.91,0,0,0-2.26-5,7.61,7.61,0,0,0-5.47-1.84A7.18,7.18,0,0,0,106.66,41.36Zm21.24-2a6.81,6.81,0,0,0-3.5,2,7.13,7.13,0,0,0-1.9,5.38,7,7,0,0,0,2.28,5,7.68,7.68,0,0,0,5.47,1.82,7.07,7.07,0,0,0,7-7.56A7,7,0,0,0,135,41a7.55,7.55,0,0,0-5.46-1.84A8.64,8.64,0,0,0,127.9,39.39ZM91.1,58.55a18.44,18.44,0,0,0-4.21-1.42,14.57,14.57,0,0,0-3.59-.2c-.3,0-.58.08-.86.12a12.46,12.46,0,0,0-8.56,5,11.52,11.52,0,0,0-2.26,5.48,13,13,0,0,0,.82,6.66A12.19,12.19,0,0,0,84.3,81.68a15.65,15.65,0,0,0,8.44-2.21c.15-.1.52-.31.55-.42a3.05,3.05,0,0,0,0-.8V75.79A18.07,18.07,0,0,1,88.11,78a13.86,13.86,0,0,1-6.56,0,8.79,8.79,0,0,1-4.45-3,8.42,8.42,0,0,1-1.91-5.5A8.69,8.69,0,0,1,78.85,62a9.35,9.35,0,0,1,5.6-1.79,15.32,15.32,0,0,1,8.22,2.41c.08,0,.21.2.27.11V59.53A15.32,15.32,0,0,0,91.1,58.55Zm6.27-1.22v24h3.32v-24h-3.3S97.37,57.3,97.37,57.33Zm12.94,8a7.7,7.7,0,0,0-3.83,2.4A8.27,8.27,0,0,0,104.4,74a7.94,7.94,0,0,0,2.65,5.65,8.31,8.31,0,0,0,6.23,2A7.94,7.94,0,0,0,118.93,79a7.83,7.83,0,0,0,2.06-6.2,8.11,8.11,0,0,0-8.86-7.76A10,10,0,0,0,110.31,65.35Zm14.4.11v7.12c0,2.4-.12,4.8.71,6.42a5,5,0,0,0,4.43,2.68,5.62,5.62,0,0,0,2.84-.73,6.85,6.85,0,0,0,1.77-1.33c0-.05.22-.23.23-.15v1.84H138V65.42c-1.06,0-2.22,0-3.32,0,0,3.5,0,7.18,0,10.74a4.55,4.55,0,0,1,0,.74,1.67,1.67,0,0,1-.23.33,4.58,4.58,0,0,1-2.28,1.73,3.23,3.23,0,0,1-3.46-.82c-.87-1.3-.68-3.81-.68-6V65.4h-3.28A.06.06,0,0,0,124.71,65.46Z"/><path class="cls-1" d="M111.75,40.65A5.5,5.5,0,0,1,116,42.07a5.61,5.61,0,0,1,1.73,3.9,6,6,0,0,1-1.33,4.29,5.25,5.25,0,0,1-3.79,1.82,5.57,5.57,0,0,1-4.21-1.42,5.43,5.43,0,0,1-1.75-3.87,5.48,5.48,0,0,1,2.9-5.54,5.09,5.09,0,0,1,1-.4A6.42,6.42,0,0,1,111.75,40.65Z"/><path class="cls-1" d="M129.48,40.65A5.68,5.68,0,0,1,133.71,42,5.78,5.78,0,0,1,135.42,46a5.85,5.85,0,0,1-1.31,4.27,5.21,5.21,0,0,1-3.79,1.84,5.7,5.7,0,0,1-4.23-1.39,5.55,5.55,0,0,1-1.73-3.9,5.52,5.52,0,0,1,2.86-5.54A5.92,5.92,0,0,1,129.48,40.65Z"/><path class="cls-1" d="M152.81,68.37V78.72c-1.85-.08-3.58.16-4.94-.21a3.82,3.82,0,0,1-2.31-2.21,8.05,8.05,0,0,1-.46-3.94c.29-2.52,1.78-4.55,4.36-4.72A6.06,6.06,0,0,1,152.81,68.37Z"/><path class="cls-1" d="M112.3,68a4.91,4.91,0,0,1,3.79,1.38,5.28,5.28,0,0,1,1.6,3.56,5.73,5.73,0,0,1-1.15,4,4.67,4.67,0,0,1-3.42,1.75,5,5,0,0,1-3.85-1.31,5.1,5.1,0,0,1-1.55-3.61,6,6,0,0,1,1.15-4,4.53,4.53,0,0,1,2.28-1.6A5.62,5.62,0,0,1,112.3,68Z"/></g></g></svg>